<svg xmlns="http://www.w3.org/2000/svg"  viewBox="0 0 512 512" width="64px" height="64px"><circle cx="256" cy="256" r="234.54" fill="#fb6771"/><path fill="#6d7486" d="M163.74,224.06a106.5,106.5,0,1,1-44.41,86.53A105.987,105.987,0,0,1,163.74,224.06Z"/><path fill="#e75163" d="M61.46,256C61.46,133.208,155.833,32.468,276,22.317c-6.6-.557-13.262-.857-20-.857C126.47,21.46,21.46,126.47,21.46,256S126.47,490.54,256,490.54c6.738,0,13.4-.3,20-.858C155.833,479.532,61.46,378.792,61.46,256Z"/><path fill="#5b6272" d="M149.33,310.59a106.269,106.269,0,0,1,91.494-105.429,106.538,106.538,0,0,0-50.374,4.949,106.517,106.517,0,0,0,35.37,206.98,107.4,107.4,0,0,0,15-1.057A106.514,106.514,0,0,1,149.33,310.59Z"/><path fill="#b0b5ca" d="M337.6,210.094a33.033,33.033,0,0,1-33-32.994V149.62a36.392,36.392,0,1,0-72.784,0v19.449a6,6,0,0,1-12,0V149.62a48.392,48.392,0,1,1,96.784,0V177.1a21,21,0,0,0,41.99,0V152.148a6,6,0,0,1,12,0V177.1A33.032,33.032,0,0,1,337.6,210.094Z"/><path fill="#f4f8fc" d="M152.425,302.125a6.005,6.005,0,0,1-5.9-7.154,80.532,80.532,0,0,1,48.847-59.25,6,6,0,0,1,4.525,11.114,68.569,68.569,0,0,0-41.6,50.442A6,6,0,0,1,152.425,302.125Z"/><path fill="#f4f8fc" d="M214.411,242.653a6,6,0,0,1-.9-11.932,81.707,81.707,0,0,1,12.311-.933,6,6,0,0,1,0,12,69.613,69.613,0,0,0-10.5.795A6.048,6.048,0,0,1,214.411,242.653Z"/><polygon fill="#fff655" points="364.6 158.97 364.25 159.76 356.43 142.22 338.49 149.09 345.37 131.15 327.82 123.34 345.37 115.52 338.49 97.58 356.43 104.46 364.25 86.91 372.06 104.46 390.01 97.58 383.13 115.52 400.67 123.34 383.13 131.15 390.01 149.09 372.06 142.22 364.6 158.97"/><path fill="#ad2a34" d="M426.085,85.915a240.537,240.537,0,1,0-340.17,340.17,240.537,240.537,0,1,0,340.17-340.17ZM27.463,256A228.536,228.536,0,0,1,413.3,90.214L90.214,413.3A226.95,226.95,0,0,1,27.463,256ZM417.6,417.6a228.538,228.538,0,0,1-318.9,4.185L421.786,98.7A228.537,228.537,0,0,1,417.6,417.6Z"/><path fill="#7a8293" d="M276.82,200.74l11.59,23.61-.04.05a106.324,106.324,0,0,0-124.63-.34l11.45-23.32a56.585,56.585,0,0,1,50.63-31.67h.19A56.587,56.587,0,0,1,276.82,200.74Z"/><path fill="#8d94a0" d="M226.07,177.63a56.555,56.555,0,0,1,14.938-6.531,56.563,56.563,0,0,0-15-2.029h-.19a56.585,56.585,0,0,0-50.63,31.67l-11.45,23.32a105.047,105.047,0,0,1,38.508-17.329l2.942-5.991A56.5,56.5,0,0,1,226.07,177.63Z"/></svg>