<svg xmlns="http://www.w3.org/2000/svg"  viewBox="0 0 100 100" width="100px" height="100px"><path fill="#eaa871" d="M72.282 68.417c-3.181-1.199-6.315-1.604-9.119-3.636-3.707-2.686-5.091-6.51-7.224-10.246-1.491-2.612-4.396-4.446-7.684-4.532-3.55-.093-6.126 1.829-8.101 4.433-2.886 3.805-5.785 7.72-9.802 10.553C26.579 67.65 22 69.306 22 74.514 22 79.201 26.029 83 31 83s11-3 17-3c10 0 18.203 2.799 23.005 1.919 2.924-.536 5.281-2.758 5.849-5.515C77.589 72.837 75.477 69.621 72.282 68.417zM60.158 45C65.965 45 69 37.277 69 29.94 69 22.605 65.632 19 61.842 19 55.914 19 53 23.483 53 30.655 53 35.158 54.263 45 60.158 45zM39.137 43C44.594 43 46 35.801 46 28.778 46 23.444 43.5 19 39.403 19 33.669 19 31 23.444 31 30.246 31 36.333 34.355 43 39.137 43zM28 48.68C28 43.4 25.529 39 21.295 39 17.294 39 14 43.4 14 50.44 14 54.476 16.059 61 21.065 61 25.144 61 28 55.254 28 48.68zM79.583 41C75 41 70 45.62 70 53.6c0 3.78 2.083 8.4 6.25 8.4S85 56.12 85 48.56C85 44.36 83.333 41 79.583 41z"/><path fill="#1f212b" d="M41.459 59c-.106 0-.214-.034-.305-.104-.219-.168-.26-.482-.092-.701l.763-1c.168-.221.483-.262.7-.094.22.167.263.481.095.701l-.765 1.001C41.757 58.933 41.608 59 41.459 59zM39 62.08c-.114 0-.229-.039-.322-.118-.211-.178-.238-.493-.061-.704.437-.519.863-1.042 1.281-1.569.172-.216.487-.252.702-.081.217.172.253.486.081.703-.424.534-.856 1.065-1.299 1.591C39.283 62.02 39.143 62.08 39 62.08zM31 80c-3.309 0-6-2.463-6-5.49 0-2.44 1.626-3.579 4.743-5.542.723-.45 1.539-.959 2.338-1.525 1.818-1.284 3.555-2.847 5.309-4.778.187-.205.503-.219.706-.034.205.186.22.502.034.706-1.804 1.986-3.593 3.596-5.472 4.923-.821.583-1.651 1.1-2.384 1.556C26.911 71.934 26 72.757 26 74.51c0 2.476 2.243 4.49 5 4.49 1.868 0 4.212-.614 6.693-1.264C40.8 76.922 44.319 76 48 76c5.233 0 10.024.724 13.874 1.305 3.401.52 6.609 1.009 8.406.683 1.327-.245 2.421-1.227 2.659-2.389.342-1.699-.831-2.976-2.066-3.442-.5-.188-1.005-.355-1.522-.518-.264-.082-.41-.363-.328-.626.083-.263.359-.411.627-.328.535.167 1.058.341 1.576.536 1.618.611 3.151 2.304 2.694 4.577-.319 1.553-1.741 2.856-3.459 3.173-1.957.359-5.1-.121-8.736-.678C57.908 77.718 53.158 77 48 77c-3.552 0-7.006.905-10.053 1.704C35.401 79.37 32.996 80 31 80zM60.158 46C53.718 46 52 36.354 52 30.655 52 22.613 55.587 18 61.842 18 65.902 18 70 21.692 70 29.94 70 37.921 66.619 46 60.158 46zM61.842 20C55.36 20 54 25.794 54 30.655 54 35.271 55.287 44 60.158 44 65.252 44 68 36.756 68 29.94 68 23.902 65.583 20 61.842 20zM39.137 44C33.671 44 30 36.888 30 30.246 30 22.463 33.427 18 39.402 18 43.805 18 47 22.533 47 28.778 47 41.359 42.724 44 39.137 44zM39.402 20C33.284 20 32 25.572 32 30.246 32 35.794 35.052 42 39.137 42 43.982 42 45 34.81 45 28.778 45 24.416 43.077 20 39.402 20zM21.064 62C15.502 62 13 55.24 13 50.44 13 43.232 16.488 38 21.295 38 25.832 38 29 42.392 29 48.68 29 56.274 25.589 62 21.064 62zM21.295 40C17.647 40 15 44.391 15 50.44c0 3.855 1.928 9.56 6.064 9.56C24.337 60 27 54.922 27 48.68 27 44.5 25.215 40 21.295 40z"/><g><path fill="#1f212b" d="M76.25,63C71.712,63,69,58.221,69,53.6C69,45.087,74.381,40,79.583,40C83.541,40,86,43.28,86,48.56C86,56.825,80.853,63,76.25,63z M79.583,42C75.364,42,71,46.339,71,53.6c0,3.073,1.629,7.4,5.25,7.4C79.834,61,84,55.566,84,48.56C84,46.587,83.569,42,79.583,42z"/></g><g><path fill="#1f212b" d="M31,84c-5.514,0-10-4.255-10-9.486c0-4.77,3.362-6.885,6.614-8.93c0.72-0.453,1.465-0.921,2.161-1.413c3.749-2.644,6.56-6.352,9.276-9.937l0.306-0.403c2.499-3.293,5.477-4.929,8.924-4.828c3.538,0.092,6.805,2.021,8.525,5.036c0.463,0.81,0.892,1.625,1.315,2.431c1.493,2.842,2.904,5.527,5.628,7.501c1.795,1.3,3.776,1.896,5.873,2.526c0.979,0.294,1.99,0.598,3.012,0.983l0,0c3.807,1.434,5.992,5.272,5.198,9.125c-0.65,3.157-3.322,5.687-6.647,6.296c-2.604,0.479-6.057-0.045-10.06-0.651C57.246,81.665,52.85,81,48,81c-3.013,0-6.076,0.8-9.038,1.573C36.151,83.307,33.497,84,31,84z M48.013,51c-2.688,0-5.001,1.324-7.062,4.041l-0.305,0.402c-2.811,3.707-5.716,7.541-9.719,10.364c-0.739,0.521-1.507,1.004-2.248,1.471C25.632,69.194,23,70.85,23,74.514C23,78.642,26.589,82,31,82c2.24,0,4.773-0.662,7.456-1.362C41.541,79.833,44.73,79,48,79c5,0,9.476,0.677,13.425,1.274c3.825,0.579,7.131,1.078,9.399,0.662c2.533-0.464,4.562-2.366,5.05-4.733c0.604-2.931-1.018-5.748-3.944-6.851l0,0c-0.958-0.361-1.937-0.655-2.882-0.939c-2.164-0.65-4.402-1.323-6.472-2.822c-3.103-2.249-4.689-5.269-6.225-8.19c-0.413-0.786-0.83-1.58-1.281-2.37c-1.377-2.411-3.998-3.954-6.842-4.028C48.156,51.001,48.084,51,48.013,51z"/></g></svg>