<svg xmlns="http://www.w3.org/2000/svg" xmlns:xlink="http://www.w3.org/1999/xlink" viewBox="0,0,256,256" width="96px" height="96px"><g fill="#94d82d" fill-rule="evenodd" stroke="none" stroke-width="1" stroke-linecap="butt" stroke-linejoin="round" stroke-miterlimit="2" stroke-dasharray="" stroke-dashoffset="0" font-family="none" font-weight="none" font-size="none" text-anchor="none" style="mix-blend-mode: normal"><g transform="scale(16,16)"><path d="M11.47,2.53l1.469,1.47l-1.469,1.47c-0.293,0.292 -0.293,0.768 0,1.06c0.292,0.293 0.768,0.293 1.06,0l2,-2c0.293,-0.293 0.293,-0.767 0,-1.06l-2,-2c-0.292,-0.293 -0.768,-0.293 -1.06,0c-0.293,0.292 -0.293,0.768 0,1.06z"></path><path d="M11.47,10.53l1.469,1.47l-1.469,1.47c-0.293,0.292 -0.293,0.768 0,1.06c0.292,0.293 0.768,0.293 1.06,0l2,-2c0.293,-0.293 0.293,-0.767 0,-1.06l-2,-2c-0.292,-0.293 -0.768,-0.293 -1.06,0c-0.293,0.292 -0.293,0.768 0,1.06z"></path><path d="M14,3.25h-2.337c-1.293,0 -2.495,0.666 -3.18,1.763c-0.912,1.458 -2.326,3.721 -3.238,5.18c-0.411,0.657 -1.132,1.057 -1.908,1.057h-1.337c-0.414,0 -0.75,0.336 -0.75,0.75c0,0.414 0.336,0.75 0.75,0.75c0,0 0.645,0 1.337,0c1.293,0 2.495,-0.666 3.18,-1.763c0.912,-1.458 2.326,-3.721 3.238,-5.18c0.411,-0.657 1.132,-1.057 1.908,-1.057h2.337c0.414,0 0.75,-0.336 0.75,-0.75c0,-0.414 -0.336,-0.75 -0.75,-0.75z"></path><path d="M14,11.25h-2.337c-0.776,0 -1.497,-0.4 -1.908,-1.058c-0.116,-0.184 -0.239,-0.382 -0.369,-0.589c-0.219,-0.352 -0.682,-0.458 -1.033,-0.239c-0.352,0.219 -0.458,0.682 -0.239,1.033c0.13,0.208 0.253,0.406 0.369,0.59c0.685,1.097 1.887,1.763 3.18,1.763h2.337c0.414,0 0.75,-0.336 0.75,-0.75c0,-0.414 -0.336,-0.75 -0.75,-0.75z"></path><path d="M6.886,5.603c-0.13,-0.208 -0.253,-0.406 -0.369,-0.59c-0.685,-1.097 -1.887,-1.763 -3.18,-1.763c-0.692,0 -1.337,0 -1.337,0c-0.414,0 -0.75,0.336 -0.75,0.75c0,0.414 0.336,0.75 0.75,0.75h1.337c0.776,0 1.497,0.4 1.908,1.058c0.116,0.184 0.239,0.382 0.369,0.589c0.219,0.352 0.682,0.458 1.033,0.239c0.352,-0.219 0.458,-0.682 0.239,-1.033z"></path></g></g></svg>